# xmcd
#
# Track frame offsets: 
#        150
#        3006
#        15194
#        26958
#        42919
#        53997
#        65510
#        76919
#        92581
#        101956
#        113408
#        124347
#        132185
#        146077
#        155375
#
# Disc length: 2174 seconds
#
# Revision: 1
# Processed by: cddbd v1.5.2PL0 Copyright (c) Steve Scherf et al.
# Submitted via: ExactAudioCopy v0.99pb4
#
DISCID=bb087c0f
DTITLE=Deke Dickerson - King of the Whole Wide World
DYEAR=2008
DGENRE=Rockabilly
TTITLE0=King of the Whole Wide World (Introduction)
TTITLE1=Deep River
TTITLE2=I Can't Wait to See You (Go)
TTITLE3=Misshapen Hillbilly Gal
TTITLE4=Put Me Down
TTITLE5=Boone County Blues
TTITLE6=Make Way for a Better Man
TTITLE7=Itchin' foR My Baby
TTITLE8=Do You Think of Me
TTITLE9=Fool's Gold
TTITLE10=Trumpet
TTITLE11=Early for the Bell
TTITLE12=Bomb Shelter
TTITLE13=Double-Clutchin'
TTITLE14=King of the Whole Wide World (Reprise)
EXTD=
EXTT0=
EXTT1=
EXTT2=
EXTT3=
EXTT4=
EXTT5=
EXTT6=
EXTT7=
EXTT8=
EXTT9=
EXTT10=
EXTT11=
EXTT12=
EXTT13=
EXTT14=
PLAYORDER=
